<svg xmlns="http://www.w3.org/2000/svg" viewBox="0 0 752.31 1039.15"><defs><style>.cls-1{isolation:isolate;}.cls-2{fill:#ecba88;}.cls-3,.cls-5{fill:#010100;}.cls-14,.cls-3{opacity:0.05;}.cls-4{fill:#178d9a;}.cls-5{opacity:0.1;}.cls-13,.cls-6{fill:#fff;}.cls-7{fill:#b2b2b2;}.cls-8{fill:#969594;}.cls-29,.cls-9{fill:#f6f6f6;}.cls-10{fill:#575857;}.cls-11{fill:#f9c593;}.cls-12{fill:#facc9e;}.cls-13,.cls-29{stroke:#231916;stroke-miterlimit:10;}.cls-14,.cls-36{fill:#1e1e1c;}.cls-15{fill:#3c3d3c;}.cls-16{fill:#634f43;}.cls-17{fill:#d8a87b;}.cls-18{fill:#ebb787;}.cls-19{fill:#e5b283;}.cls-20{fill:#d6a67a;}.cls-21{fill:#c5803f;}.cls-22,.cls-36{opacity:0.2;}.cls-23,.cls-32{fill:#dadada;}.cls-23{mix-blend-mode:screen;}.cls-24{opacity:0.3;}.cls-25{fill:#4fa0c9;}.cls-26{fill:#58b0dd;}.cls-27{fill:#888;}.cls-28{fill:#448db1;}.cls-30{fill:#71706f;}.cls-31{fill:#dd4e20;}.cls-33{fill:#c0441f;}.cls-34{fill:#c7c6c6;}.cls-35{fill:#c0966d;}</style></defs><title>doctor</title><g class="cls-1"><g id="Layer_1" data-name="Layer 1"><path class="cls-2" d="M565.37,429.17l17.56,36.62,27-13c3.47,6.56,13.69,6,23.48,1.35L665,438.76c-2-20.92-9.74-38.23-20.11-57.78l-21.14,10.14-4.25-9.51h0c-.83.59-18.69,12.87-20,14a23.68,23.68,0,0,0-8.16,17.22l.12,3.86Z" transform="translate(0)"/><path class="cls-3" d="M664.33,433.59l-30.88,15.08c-9.79,4.69-20,5.21-23.48-1.35l-27,13-.59-1.23a23.26,23.26,0,0,1-1.42,2.27s-.06.05-.1.09l2.11,4.38,27-13c3.47,6.56,13.69,6,23.48,1.35L665,438.76C664.85,437,664.59,435.3,664.33,433.59Z" transform="translate(0)"/><path class="cls-4" d="M747.71,447.63,627.53,477.25a6,6,0,0,1-7.32-4.42L578.27,302.75a6,6,0,0,1,4.43-7.31l120.17-29.63a6,6,0,0,1,7.32,4.42l41.94,170.08A6,6,0,0,1,747.71,447.63Z" transform="translate(0)"/><rect class="cls-5" x="605.62" y="285.99" width="117.06" height="165.07" transform="translate(-69.18 170.7) rotate(-13.93)"/><path class="cls-6" d="M701.11,274.33,587.47,302.52,627.2,462.73l92.42-22.92c3.94-1.09,7.29-3,8-5.93l0-.05a.33.33,0,0,0,0-.23c.42-2.25-.66-5.06-4.17-8.56,6.09-10,8.08-14,9.21-23.3Z" transform="translate(0)"/><path class="cls-7" d="M727.67,433.6c.42-2.25-.66-5.06-4.17-8.56,6.09-10,8.08-14,9.21-23.3C732.85,408.6,730.35,421.78,727.67,433.6Z" transform="translate(0)"/><path class="cls-8" d="M651.27,275.17a3.51,3.51,0,0,1-3.68-1.39c-3.46-4.78-5.05-10.06-7.12-13.45a2.6,2.6,0,0,0-2.85-1.18l-1,.24a2.7,2.7,0,0,0-2,2.46c-.23,4,.8,9.34,0,15.15a3.54,3.54,0,0,1-2.62,2.94L623.58,282a7.85,7.85,0,0,0-5.75,9.51l.94,3.81a1.9,1.9,0,0,0,2.3,1.38L668.69,285a1.9,1.9,0,0,0,1.39-2.29l-.94-3.81a7.87,7.87,0,0,0-9.52-5.75Z" transform="translate(0)"/><path class="cls-9" d="M626.75,288.92a2.44,2.44,0,1,1-3-1.78A2.44,2.44,0,0,1,626.75,288.92Z" transform="translate(0)"/><path class="cls-9" d="M665.15,279.46a2.44,2.44,0,1,1-2.95-1.79A2.44,2.44,0,0,1,665.15,279.46Z" transform="translate(0)"/><path class="cls-9" d="M655.45,285.65,633.65,291a1.26,1.26,0,1,1-.61-2.44l21.81-5.38a1.26,1.26,0,0,1,1.52.92A1.24,1.24,0,0,1,655.45,285.65Z" transform="translate(0)"/><path class="cls-9" d="M654.66,282.42l-21.81,5.37a1.26,1.26,0,0,1-1.53-.91,1.27,1.27,0,0,1,.92-1.53L654.05,280a1.26,1.26,0,1,1,.61,2.44Z" transform="translate(0)"/><path class="cls-9" d="M653.86,279.19l-21.81,5.37a1.26,1.26,0,1,1-.6-2.44l21.81-5.37a1.26,1.26,0,0,1,.6,2.44Z" transform="translate(0)"/><rect class="cls-10" x="620.62" y="299.68" width="75.06" height="3.22" transform="translate(-53.18 167.31) rotate(-13.93)"/><rect class="cls-10" x="623.79" y="312.48" width="75.06" height="3.22" transform="translate(-56.16 168.42) rotate(-13.93)"/><rect class="cls-10" x="620.59" y="326.06" width="81.53" height="3.22" transform="translate(-59.42 168.82) rotate(-13.93)"/><rect class="cls-10" x="612.6" y="340.22" width="92.86" height="3.22" transform="translate(-62.91 168.7) rotate(-13.93)"/><rect class="cls-10" x="631.67" y="351.08" width="76.73" height="3.22" transform="translate(-65.2 171.67) rotate(-13.93)"/><rect class="cls-10" x="618.95" y="365.82" width="92.86" height="3.22" transform="translate(-68.88 170.98) rotate(-13.93)"/><rect class="cls-10" x="622.12" y="378.62" width="92.86" height="3.22" transform="translate(-71.87 172.11) rotate(-13.93)"/><rect class="cls-10" x="625.75" y="395.07" width="62.51" height="3.22" transform="translate(-76.17 169.81) rotate(-13.93)"/><rect class="cls-10" x="628.47" y="404.21" width="92.86" height="3.22" transform="translate(-77.84 174.39) rotate(-13.93)"/><rect class="cls-10" x="631.64" y="417.01" width="92.87" height="3.22" transform="translate(-80.83 175.52) rotate(-13.93)"/><rect class="cls-10" x="635.07" y="431.83" width="76.08" height="3.22" transform="translate(-84.55 174.78) rotate(-13.93)"/><path class="cls-4" d="M610.75,320.12l-6.7-5.83a1.31,1.31,0,0,1,1.71-2l3.37,2.93L610.7,308a1.3,1.3,0,0,1,2.55.55Z" transform="translate(0)"/><path class="cls-4" d="M614.31,334.48l-6.7-5.83a1.31,1.31,0,0,1,1.71-2l3.37,2.93,1.57-7.21a1.3,1.3,0,0,1,2.55.55Z" transform="translate(0)"/><path class="cls-4" d="M623.44,371.32l-6.7-5.84a1.31,1.31,0,0,1-.12-1.85,1.29,1.29,0,0,1,1.84-.12l3.37,2.93,1.57-7.22a1.31,1.31,0,1,1,2.55.56Z" transform="translate(0)"/><path class="cls-11" d="M587.47,442.63l15.23-7.49c24.31-8.6,18.14-31.76,18.14-31.76l2.34-1.67a4.67,4.67,0,0,1,3.93-.68l8.21,2.24a11.09,11.09,0,0,0,13.62-7.88l.43-1.67a5.24,5.24,0,0,0-3.7-6.4l-8.84-2.46-13.15-3.64a5.8,5.8,0,0,0-4.16.39h0c-.83.59-18.69,12.87-20,14a23.68,23.68,0,0,0-8.16,17.22l.12,3.86-7.81,3.6,0,.13Z" transform="translate(0)"/><path class="cls-2" d="M105.18,426.79,87.29,463.25,60.37,450c-6.24,6.29-19.52,3.08-29.27-1.7L5.45,435.48c2.18-20.9,10.64-43.11,21.18-62.57,0,0,43.42,18.88,44.72,20a23.67,23.67,0,0,1,8,17.3l-.15,3.85Z" transform="translate(0)"/><path class="cls-3" d="M31,441.73,6.3,429.37c-.32,2-.64,4.09-.85,6.11L31.1,448.34c9.75,4.78,23,8,29.27,1.7l26.92,13.21L89.88,458,61.54,444.05C55.16,450.28,41.25,446.76,31,441.73Z" transform="translate(0)"/><path class="cls-12" d="M31.56,393a8.23,8.23,0,0,0,11.06-3.57l.69-1.34a8.22,8.22,0,0,0-3.56-11.06L25,369.48a7.68,7.68,0,0,0-10.33,3.33l-1.42,2.77a7.14,7.14,0,0,0,3.1,9.63Z" transform="translate(0)"/><path class="cls-12" d="M25.39,410a8.21,8.21,0,0,0,11.17-3.5l.69-1.34a8.23,8.23,0,0,0-3.45-11L15.3,384.3a7.67,7.67,0,0,0-10.43,3.27l-1.42,2.76a7.16,7.16,0,0,0,3,9.59Z" transform="translate(0)"/><path class="cls-12" d="M19.14,426.28a8.22,8.22,0,0,0,11.06-3.56l.68-1.34a8.19,8.19,0,0,0-3.56-11.06l-14.78-7.59a7.68,7.68,0,0,0-10.33,3.33L.79,408.82a7.15,7.15,0,0,0,3.1,9.64Z" transform="translate(0)"/><path class="cls-12" d="M16.05,440.79a6.55,6.55,0,0,0,8.71-3.16l.57-1.11a6.56,6.56,0,0,0-2.52-8.92l-11.36-5.82a6.11,6.11,0,0,0-8.13,3L2.15,427a5.71,5.71,0,0,0,2.19,7.77Z" transform="translate(0)"/><path class="cls-3" d="M33.22,389.66,18,381.84a7.13,7.13,0,0,1-3.35-9l-1.41,2.76a7.14,7.14,0,0,0,3.1,9.63L31.56,393a8.23,8.23,0,0,0,11.06-3.57l.69-1.34a7.74,7.74,0,0,0,.54-1.38A8.18,8.18,0,0,1,33.22,389.66Z" transform="translate(0)"/><path class="cls-3" d="M33.37,407.21a8.19,8.19,0,0,1-6.32-.59L8.11,396.55A7.13,7.13,0,0,1,5,387.39c0,.07-.08.12-.11.18l-1.42,2.76a7.16,7.16,0,0,0,3,9.59L25.39,410a8.21,8.21,0,0,0,11.17-3.5l.69-1.34a8.29,8.29,0,0,0,.54-1.37A8.18,8.18,0,0,1,33.37,407.21Z" transform="translate(0)"/><path class="cls-3" d="M20.79,422.91,5.55,415.09a7,7,0,0,1-3.23-9.21c0,.06-.08.11-.11.18L.79,408.82a7.15,7.15,0,0,0,3.1,9.64l15.25,7.82a8.22,8.22,0,0,0,11.06-3.56l.68-1.34a9,9,0,0,0,.55-1.38A8.2,8.2,0,0,1,20.79,422.91Z" transform="translate(0)"/><path class="cls-3" d="M17.7,437.42,6,431.42a5.6,5.6,0,0,1-2.41-7c-.07.12-.19.2-.26.33L2.15,427a5.71,5.71,0,0,0,2.19,7.77l11.71,6a6.55,6.55,0,0,0,8.71-3.16l.57-1.11a7,7,0,0,0,.41-1.4A6.39,6.39,0,0,1,17.7,437.42Z" transform="translate(0)"/><path class="cls-11" d="M98.49,423.51,87,417.73l-7.78-3.68s4.12-10.47-6-20.31c-10.62-10.29,3.93-31.58,3.93-31.58,8.16-7.92-10.54-19.74-18.18-1L50,382.36c-12.2,32.86.13,46.75,16.51,52.71l26.69,13.28Z" transform="translate(0)"/><path class="cls-13" d="M244.72,333.73A18.48,18.48,0,0,0,226.1,344l0,.08L168,459.68,83.47,414.54c-1.79,20.37-9,41.34-8.72,60.79,17.26,7.58,41.83,16.48,41.83,16.48,4.2,1.88,8.6,3.67,12.93,5.48l13,5.44,26,10.85,8.14,3.39a15.6,15.6,0,0,0,20.39-8.33l3-7,60-141.93A18.8,18.8,0,0,0,244.72,333.73Z" transform="translate(0)"/><path class="cls-14" d="M194.48,494.73a18.88,18.88,0,0,1-24.29,8.87C144.76,492.68,92.86,470.42,75.53,462c-.18,4.6-.86,9-.78,13.34,17.26,7.58,41.83,16.48,41.83,16.48,4.2,1.88,8.6,3.67,12.93,5.48l13,5.44,26,10.85,8.14,3.39a15.6,15.6,0,0,0,20.39-8.33l3-7,46.86-110.84Z" transform="translate(0)"/><path class="cls-13" d="M588.44,414.28c-.57.26-55.29,30.37-55.29,30.37-4.07,2.29-8.09,4.35-12.12,6.49l-12.1,6.38-4.07,2.16L446.81,344.09l-.07-.14a18.71,18.71,0,0,0-25.32-8.15c-8.83,4.57-12.09,15.64-8.22,24.79l59.62,141,2.71,6.42a16.27,16.27,0,0,0,21.25,8.68l7.54-3.14,26-10.85,13-5.44c4.33-1.81,8.73-3.6,12.93-5.48L597,473.94C592.8,459.06,590.05,417.81,588.44,414.28Z" transform="translate(0)"/><path class="cls-14" d="M504.15,501.24a19.44,19.44,0,0,1-24.54-9.18L417.52,370.82l55.3,130.8,2.71,6.42a16.27,16.27,0,0,0,21.25,8.68l7.54-3.14,26-10.85,13-5.44c4.33-1.81,8.73-3.6,12.93-5.48L597,473.94c-.67-2.41-1.3-5.57-1.91-9.1Z" transform="translate(0)"/><path class="cls-15" d="M287.94,1036.46c8.72.47,18,1,24.71-2.55v-5.7L286.58,1025Z" transform="translate(0)"/><path class="cls-15" d="M312.65,1028.21c-46.31,12.3-80.73,13.78-99.91,6.7l-.61-7.26,99.77-8.37Z" transform="translate(0)"/><path class="cls-16" d="M312.12,1022c-14.62,9-91.78,14.27-100,5.63-.41-5,7.63-10.36,22.18-16.2,1.44-.57,2.93-1.14,4.51-1.74,1.08-.41,2.22-.81,3.39-1.25,1.53-.54,3.07-1.09,4.68-1.63h0c1.09-.38,2.23-.76,3.38-1.14h0c1.58-.52,3.21-1,4.9-1.58q6-1.9,12.74-3.86C306.85,989,311.47,1014,312.12,1022Z" transform="translate(0)"/><path class="cls-15" d="M264.37,1012.89a2,2,0,0,1-1.68.87,2,2,0,0,1-1.14-.35l-11.23-7.72c1.58-.52,3.21-1,4.9-1.58l8.64,5.93A2,2,0,0,1,264.37,1012.89Z" transform="translate(0)"/><path class="cls-15" d="M256,1016a2,2,0,0,1-1.58.76,2,2,0,0,1-1.28-.44c-2-1.6-4.21-3.15-6.38-4.64-1.47-1-3-2.12-4.49-3.21,1.53-.54,3.07-1.09,4.68-1.63h0c.71.49,1.42,1,2.12,1.49,2.23,1.53,4.52,3.13,6.61,4.82A2,2,0,0,1,256,1016Z" transform="translate(0)"/><path class="cls-15" d="M247.63,1018.84a2,2,0,0,1-1.63.82,2.06,2.06,0,0,1-1.22-.41l-10.46-7.8c1.44-.57,2.93-1.14,4.51-1.74l8.4,6.28A2,2,0,0,1,247.63,1018.84Z" transform="translate(0)"/><path class="cls-15" d="M392.08,1036.46c-8.71.47-18,1-24.7-2.55v-5.7l26.06-3.24Z" transform="translate(0)"/><path class="cls-15" d="M367.38,1028.21c46.31,12.3,80.73,13.78,99.91,6.7l.61-7.26-99.77-8.37Z" transform="translate(0)"/><path class="cls-16" d="M367.9,1022c14.63,9,91.78,14.27,100,5.63.41-5-7.63-10.36-22.17-16.2-1.45-.57-2.94-1.14-4.52-1.74l-3.39-1.25c-1.53-.54-3.08-1.09-4.68-1.63h0c-1.09-.38-2.24-.76-3.38-1.14h0c-1.58-.52-3.21-1-4.9-1.58q-6-1.9-12.74-3.86C373.18,989,368.56,1014,367.9,1022Z" transform="translate(0)"/><path class="cls-15" d="M415.65,1012.89a2.06,2.06,0,0,0,2.83.52l11.23-7.72c-1.58-.52-3.21-1-4.9-1.58l-8.63,5.93A2,2,0,0,0,415.65,1012.89Z" transform="translate(0)"/><path class="cls-15" d="M424.08,1016a2,2,0,0,0,1.58.76,2,2,0,0,0,1.28-.44c2-1.6,4.21-3.15,6.38-4.64,1.47-1,3-2.12,4.49-3.21-1.53-.54-3.08-1.09-4.68-1.63h0c-.71.49-1.42,1-2.13,1.49-2.23,1.53-4.5,3.13-6.6,4.82A2,2,0,0,0,424.08,1016Z" transform="translate(0)"/><path class="cls-15" d="M432.4,1018.84a2,2,0,0,0,1.63.82,2.08,2.08,0,0,0,1.22-.41l10.47-7.8c-1.45-.57-2.94-1.14-4.52-1.74l-8.4,6.28A2,2,0,0,0,432.4,1018.84Z" transform="translate(0)"/><path class="cls-7" d="M475.39,731.12,399.63,602.67H259L202.63,731.12v69.07c22.69,20.12,188.23,23.73,272.76,0Z" transform="translate(0)"/><rect class="cls-17" x="307.38" y="248.14" width="61.9" height="94.66"/><path class="cls-11" d="M260,143.34c-4.58-4.48-10.23-6.76-15.8-5.84-.24,0-.48.06-.73.11-10.83,2.36-17,16.22-13.79,31s14.59,24.77,25.42,22.41a13.75,13.75,0,0,0,1.8-.52Z" transform="translate(0)"/><path class="cls-11" d="M433.63,137.61c-.25-.05-.5-.07-.74-.11-5.57-.92-11.21,1.36-15.78,5.83l3.11,47.14A15.14,15.14,0,0,0,422,191c10.82,2.36,22.2-7.67,25.42-22.41S444.45,140,433.63,137.61Z" transform="translate(0)"/><path class="cls-18" d="M229.75,161.7a32.06,32.06,0,0,1-.75-4.45,35.65,35.65,0,0,0,.65,11.32c3.21,14.74,14.59,24.77,25.42,22.41a13.61,13.61,0,0,0,1.79-.52l.41-6.22C245.44,185.93,233.25,176.07,229.75,161.7Z" transform="translate(0)"/><path class="cls-18" d="M448.06,157.14a30.21,30.21,0,0,1-.87,4.56c-3.61,12.91-15.22,22.22-27.36,22.73l.39,6A15.71,15.71,0,0,0,422,191c10.83,2.36,22.21-7.67,25.43-22.41A36,36,0,0,0,448.06,157.14Z" transform="translate(0)"/><path class="cls-11" d="M417.11,143.33l-2.63-39.88A31.75,31.75,0,0,0,390.33,74.7a237.58,237.58,0,0,0-50.08-7c-.58,0-1.15,0-1.71,0s-1.15,0-1.74,0a237.94,237.94,0,0,0-50.08,7,31.71,31.71,0,0,0-24.13,28.75L260,143.34l-3.1,47.12-.1,1.51a65.59,65.59,0,0,0,17.41,50.89l27.1,28.95a19.91,19.91,0,0,0,14.57,6.32h45.39a19.94,19.94,0,0,0,14.57-6.32l27.08-28.95A65.6,65.6,0,0,0,420.31,192l-.09-1.5Z" transform="translate(0)"/><path class="cls-19" d="M404.15,229.78l-27.64,29a20.53,20.53,0,0,1-14.86,6.33h-46.3a20.51,20.51,0,0,1-14.85-6.31l-27.62-28.95a65.08,65.08,0,0,1-16.38-30.3,65.63,65.63,0,0,0,17.67,43.35l27.09,28.95a20,20,0,0,0,14.57,6.32h45.4a19.94,19.94,0,0,0,14.56-6.32l27.09-28.95a65.6,65.6,0,0,0,17.68-43.46A65.22,65.22,0,0,1,404.15,229.78Z" transform="translate(0)"/><path class="cls-20" d="M346.08,95c4.85,2.9,9.61,5.79,14.25,8.23-25.89-2.2-46.49-21.51-72.94-20.9.18-.1.38-.16.58-.27a66.7,66.7,0,0,0-17.57,2.51,31.54,31.54,0,0,1,16.32-9.89,237.94,237.94,0,0,1,50.08-7c.59,0,1.15,0,1.74,0s1.13,0,1.71,0a237.58,237.58,0,0,1,50.08,7,31.72,31.72,0,0,1,23.51,24.17C391.24,107.85,368.66,102.14,346.08,95Z" transform="translate(0)"/><path class="cls-20" d="M355.61,246.78c.23,1.6-6.72,7.92-16,7.86s-17.16-6.26-16.93-7.86,7.51-2.46,16.46-2.53S355.38,245.09,355.61,246.78Z" transform="translate(0)"/><path class="cls-20" d="M251.06,176.83a14.39,14.39,0,0,1-.09-3.68c.26-1.37.41-2.8.86-4.38s.88-3.26,1.27-5.09a24.33,24.33,0,0,0,.71-6,14.43,14.43,0,0,0-1.52-6.25,10,10,0,0,0-4.49-4.46,9.48,9.48,0,0,0-10.09,1.2,8.43,8.43,0,0,0-2.93,6c0,1.58.46,2.36.68,2.32s.4-.83.87-2a8.21,8.21,0,0,1,3.12-4,6.7,6.7,0,0,1,6.67-.15c2.21,1.2,3.6,4.08,3.65,7.52a38.37,38.37,0,0,1-1.24,8.53c-.11-.05-.17-.12-.29-.17a5.79,5.79,0,0,0-7.63,7.16c.57,1.53,1.58,2,2,1.71s.56-1.13.83-2a6.06,6.06,0,0,1,1.47-2.72,6,6,0,0,1,2.81-1.3l.33-.07c-.23,1.39-.34,2.8-.44,4.09a15.38,15.38,0,0,0,.66,4.51,9.74,9.74,0,0,0,3.67,5.41,4.16,4.16,0,0,0,1.63.73q.6.13.69-.06C254.59,183,251.67,181.46,251.06,176.83Z" transform="translate(0)"/><path class="cls-20" d="M439.35,148.14a9.49,9.49,0,0,0-10.09-1.2,10,10,0,0,0-4.5,4.46,14.56,14.56,0,0,0-1.51,6.25,23.86,23.86,0,0,0,.71,6c.38,1.83.91,3.54,1.26,5.09s.61,3,.88,4.38a15.33,15.33,0,0,1-.1,3.68c-.61,4.63-3.54,6.16-3.21,6.73q.09.19.69.06a4.07,4.07,0,0,0,1.62-.73,9.7,9.7,0,0,0,3.68-5.41,15.38,15.38,0,0,0,.66-4.51c-.1-1.29-.22-2.7-.45-4.09l.33.07a6,6,0,0,1,2.82,1.3,6.08,6.08,0,0,1,1.48,2.72c.26.91.32,1.73.82,2s1.44-.18,2-1.71a5.79,5.79,0,0,0-7.63-7.16c-.12.05-.18.12-.29.17a38.37,38.37,0,0,1-1.24-8.53c0-3.44,1.44-6.32,3.65-7.52a6.7,6.7,0,0,1,6.67.15,8.27,8.27,0,0,1,3.12,4c.47,1.21.54,2,.87,2s.71-.74.68-2.32A8.47,8.47,0,0,0,439.35,148.14Z" transform="translate(0)"/><path class="cls-15" d="M425.62,56.22a73.5,73.5,0,0,0-13-16.06C398.43,26.82,379,18.42,358.34,15l1.12-.27c1.34-.24,2.64-.58,3.85-.73l1.77-.28,1.64-.16a25.2,25.2,0,0,1,2.89-.13,11.43,11.43,0,0,1,2.26.07l2,.14s-.54-.46-1.6-1.25a10.51,10.51,0,0,0-2.06-1.28,17.53,17.53,0,0,0-3-1.29l-1.82-.58c-.63-.16-1.3-.27-2-.41a31.56,31.56,0,0,0-4.5-.46,42,42,0,0,0-10,1.08c-1.17.29-2.29.6-3.39.91-.35-.78-.72-1.58-1.16-2.36a23.43,23.43,0,0,0-1.73-2.82,14.1,14.1,0,0,0-4.47-4.07A8.43,8.43,0,0,0,334.22,0a10,10,0,0,0-1.43.18l1,.92a10.47,10.47,0,0,1,1.75,2.73,27.3,27.3,0,0,1,1.41,4.24l.44,1.65a24.43,24.43,0,0,0-6.22-2.35,20.9,20.9,0,0,0-7.43-.49l-1.49.21-1.31.35a10,10,0,0,0-2,.73c-1.05.51-1.58.82-1.58.82l1.72.36a11.79,11.79,0,0,1,1.89.49l1.13.32,1.22.48a41.91,41.91,0,0,1,5.6,2.7l.21.13a118.93,118.93,0,0,0-40.62,9.41c-14.87,6.54-27.6,16.39-36.07,29.59C245,64,240.88,78.09,241.38,94.76l2.78,42.74c5.57-.92,11.22,1.36,15.8,5.84l2.63-39.89A31.71,31.71,0,0,1,286.72,74.7q2.83-.69,5.7-1.32c24.1,1.71,43.69,18.73,67.9,20.79-4.64-2.45-9.39-5.32-14.25-8.22,21.62,6.8,43.24,12.34,64.87,4.91a31.59,31.59,0,0,1,3.54,12.59l2.63,39.88c4.57-4.47,10.21-6.75,15.78-5.83l2.78-42.74C435.75,79.89,432.06,67,425.62,56.22Z" transform="translate(0)"/><path class="cls-20" d="M357.55,191.13c.34,1.48-1.39,3.85-4.67,6.28a23.58,23.58,0,0,1-28.7,0c-3.28-2.43-5-4.8-4.68-6.28s2.75-1.86,6.25-1.49,8,1.18,12.78,1.21,9.27-.87,12.78-1.21S357.2,189.61,357.55,191.13Z" transform="translate(0)"/><path class="cls-20" d="M330.91,126.49c-5.21,13.49-8.59,39.93-11.41,64.16,0,0,18.81,1.22,16.17,0C328.61,187.42,332.55,176.39,330.91,126.49Z" transform="translate(0)"/><path class="cls-20" d="M275.91,139.75c18.08-20.13,58.95-29.28,54.71-10.21-.43,2.79-1.82,13.72-4.11,15.77C315.34,117.82,289.41,135,275.91,139.75Z" transform="translate(0)"/><path class="cls-20" d="M403.47,139.84c-8.1-23.89-46.54-28.56-56.09-15.63.44,2.79,1.88,19,4.16,21.1C353.41,111.94,397.77,135.22,403.47,139.84Z" transform="translate(0)"/><path class="cls-15" d="M333.54,124.21c-.37.42-1.59.23-3.35-.29a63,63,0,0,0-7.11-1.79,43.14,43.14,0,0,0-22,2.19,57.84,57.84,0,0,0-17.91,10.9c-2,1.72-3.65,3.18-5,4.12a6.69,6.69,0,0,1-1.75,1c-.52.17-.81.09-1-.14a2,2,0,0,1-.14-1,6.22,6.22,0,0,1,.37-1.67,26.5,26.5,0,0,1,3-5.84A39.29,39.29,0,0,1,297.12,117c9.34-3.82,20.13-3.43,27.17-.42a23.61,23.61,0,0,1,7.59,4.75C333.38,122.79,333.91,123.81,333.54,124.21Z" transform="translate(0)"/><path class="cls-15" d="M347.38,124.21c.37.42,1.59.23,3.36-.29a62.41,62.41,0,0,1,7.11-1.79,43.16,43.16,0,0,1,22,2.19,58,58,0,0,1,17.91,10.9c2,1.72,3.64,3.18,4.94,4.12a6.85,6.85,0,0,0,1.75,1c.52.17.82.09,1-.14a1.93,1.93,0,0,0,.13-1,5.85,5.85,0,0,0-.37-1.67,26.37,26.37,0,0,0-3-5.84A39.34,39.34,0,0,0,383.81,117c-9.34-3.82-20.13-3.43-27.17-.42a23.5,23.5,0,0,0-7.59,4.75C347.55,122.79,347,123.81,347.38,124.21Z" transform="translate(0)"/><path class="cls-21" d="M315.34,144.38c0,4.29-4,7.77-8.91,7.77s-8.91-3.48-8.91-7.77,4-7.77,8.91-7.77S315.34,140.09,315.34,144.38Z" transform="translate(0)"/><path class="cls-15" d="M311.22,144.38a4.8,4.8,0,1,1-4.79-4.54A4.67,4.67,0,0,1,311.22,144.38Z" transform="translate(0)"/><path class="cls-6" d="M303.82,147.25a1.68,1.68,0,0,1-1.68,1.68h0a1.69,1.69,0,0,1-1.68-1.68h0a1.69,1.69,0,0,1,1.68-1.69h0a1.68,1.68,0,0,1,1.68,1.69Z" transform="translate(0)"/><path class="cls-6" d="M313.57,140.32a3.1,3.1,0,0,1-3.1,3.1h0a3.1,3.1,0,0,1-3.1-3.1h0a3.1,3.1,0,0,1,3.1-3.1h0a3.1,3.1,0,0,1,3.1,3.1Z" transform="translate(0)"/><path class="cls-21" d="M380.54,144.38c0,4.29-4,7.77-8.91,7.77s-8.91-3.48-8.91-7.77,4-7.77,8.91-7.77S380.54,140.09,380.54,144.38Z" transform="translate(0)"/><path class="cls-15" d="M376.42,144.38a4.8,4.8,0,1,1-4.79-4.54A4.68,4.68,0,0,1,376.42,144.38Z" transform="translate(0)"/><path class="cls-6" d="M369,147.25a1.68,1.68,0,0,1-1.68,1.68h0a1.68,1.68,0,0,1-1.68-1.68h0a1.68,1.68,0,0,1,1.68-1.69h0a1.68,1.68,0,0,1,1.68,1.69Z" transform="translate(0)"/><path class="cls-6" d="M378.76,140.32a3.1,3.1,0,0,1-3.1,3.1h0a3.09,3.09,0,0,1-3.09-3.1h0a3.09,3.09,0,0,1,3.09-3.1h0a3.1,3.1,0,0,1,3.1,3.1Z" transform="translate(0)"/><g class="cls-22"><path class="cls-23" d="M359.1,72c10.34,3.18,24.53,3,30.33-7.69-22.34,12.11-44.76-20.14-67.71-7.73,11.41.92,20.78,8,30.9,12.84-15.61-6.23-31.3-11.93-48.45-8.1,32.71,5.64,68.85,41.4,102,18.44C389.56,83.4,374.28,78.06,359.1,72Z" transform="translate(0)"/><path class="cls-23" d="M369.08,22.89c38.08,13,61.15,44.65,61.83,84.88C437.48,66.05,410.81,29.43,369.08,22.89Z" transform="translate(0)"/><path class="cls-23" d="M425.71,118.81A69,69,0,0,0,411.2,59.29,259.59,259.59,0,0,1,425.71,118.81Z" transform="translate(0)"/><path class="cls-23" d="M246.91,91.93a99.27,99.27,0,0,1,32.24-56.81A55.23,55.23,0,0,0,246.91,91.93Z" transform="translate(0)"/></g><g class="cls-24"><path class="cls-6" d="M350.25,184.49c-2.47.14-4.6-1.32-4.76-3.25,0-.48,0-3.26.13-7.17s-.06-9-.1-14c0-2.53-.08-5-.11-7.39s.07-4.54.11-6.41c.07-3.72.12-6.18.12-6.18s.5,2.41,1.27,6.05c.38,1.81.83,3.93,1.32,6.21s1.14,4.71,1.74,7.15c1.15,4.89,2.39,9.92,3.18,13.85s1.24,6.79,1.29,7.29C354.6,182.62,352.72,184.36,350.25,184.49Z" transform="translate(0)"/></g><path class="cls-25" d="M338.78,600.27c-28.4.12-64.46-41.39-97.19-47.86-1.79-88.47,5.35-172.27,29.06-247.41l68.13,9.2,68.13-9.2c19.78,69.52,27.3,154.77,29.06,247.41C403.24,558.88,367.18,600.39,338.78,600.27Z" transform="translate(0)"/><path class="cls-26" d="M338.78,314.2l-34.7,32.1L270.65,305l36.73-25.95c1.68,16.63,11.84,31.85,31.4,35.15,22.05-3.87,29.4-18,30.5-34.63L406.91,305l-33.43,41.3Z" transform="translate(0)"/><path class="cls-15" d="M338.78,685a239.91,239.91,0,0,1-35.39-1.54,63.78,63.78,0,0,1-54.79-50.36c-5.42-26.07-7.34-53.06-7-80.66,33.3,9.51,65.83,15.65,97.19,16.69,31.36-1,63.89-7.18,97.19-16.69.33,27.6-1.59,54.59-7,80.66a63.78,63.78,0,0,1-54.78,50.36A240,240,0,0,1,338.78,685Z" transform="translate(0)"/><path class="cls-10" d="M338.78,569.1c-31.36-1-63.89-7.18-97.19-16.69q-.1,9.36.16,18.61c33.24,9.48,65.72,15.61,97,16.65,31.31-1,63.79-7.17,97-16.65q.26-9.25.15-18.61C402.67,561.92,370.14,568.06,338.78,569.1Z" transform="translate(0)"/><rect class="cls-27" x="325.76" y="568.38" width="26.04" height="19.29"/><polygon class="cls-15" points="264.51 578.02 259.02 578.02 259.02 557.09 264.51 558.44 264.51 578.02"/><polygon class="cls-15" points="413.05 578.02 418.54 578.02 418.54 557.09 413.05 558.44 413.05 578.02"/><polygon class="cls-15" points="296.23 584.99 290.74 584.99 290.74 564.05 296.23 564.83 296.23 584.99"/><polygon class="cls-15" points="381.33 584.99 386.82 584.99 386.82 564.05 381.33 564.83 381.33 584.99"/><path class="cls-28" d="M338.52,482.25c-3.47-2.84-14.73-12.1-18.25-14.86,10-40.61,19-77.76,19.1-120.16,3.34-.18,2.31-.76,5.64-.93,4.57,43,15.87,82.81,10,126.15C350.72,473.83,342.83,481,338.52,482.25Z" transform="translate(0)"/><path class="cls-10" d="M329.49,478.45c-3.47-2.85-10.78-10.46-14.3-13.22,10-40.61,19-77.76,19.1-120.16l10-.53c4.56,43,8.88,81.22,3,124.56C343,470.48,333.8,477.17,329.49,478.45Z" transform="translate(0)"/><path class="cls-15" d="M320.27,1010.7c.23-2.65-1.06-18.91-1-21.6,3.18-121.39,5.57-242.5,3.08-363.93-.56-23.73-35.87-26.9-40.54-3.64-2.64,13.15-1.66,27.82-2.35,41.14-2.79,53.77-6.32,107.5-11.51,161.11q-8.31,86.06-16.75,172.1c-.05.41-.06.82-.08,1.23C264,1004.32,285.12,1014,320.27,1010.7Z" transform="translate(0)"/><path class="cls-15" d="M357.37,1004.58c-.23-2.64,1.06-18.91,1-21.59-3.19-121.4-5.57-242.51-3.08-363.93.56-23.74,35.87-26.91,40.54-3.64,2.64,13.14,1.66,27.82,2.35,41.13,2.78,53.78,6.32,107.51,11.5,161.11q8.32,86.05,16.76,172.1c0,.41.05.82.08,1.23C411.08,1002.07,388.54,1009.32,357.37,1004.58Z" transform="translate(0)"/><polygon class="cls-15" points="333.67 346.7 329.54 326.76 339.16 316.88 348.77 326.76 345.01 346.3 333.67 346.7"/><path class="cls-13" d="M307.4,279.07c-.68,60.16-.52,120.33-.63,178.4-.26,141.26-1.88,270.11-20,355.92-34.53,2.09-58.13,3.45-84.18-13.19-2.72-44.89-.78-93.23,2.83-143.14.41-5.55.83-11.14,1.3-16.74C214.38,545,227.1,444.76,225,352.78c-.47-21,18.26-37.72,36.57-48L286.16,291Z" transform="translate(0)"/><path class="cls-13" d="M475.39,800.2c-26.05,16.64-68.43,16.38-102.95,14.28,9.46-90,4.91-219.47.78-361.46-1.68-56.4-3.3-114.73-3.93-173.43l21.3,12,24.53,13.76c11.51,6.43,27.84,21.66,28.67,37.46,5.92,113.69,22.45,207.91,30.51,297.53.47,5.6.94,11.19,1.35,16.74C479.42,705.09,480.31,752,475.39,800.2Z" transform="translate(0)"/><path class="cls-13" d="M411.46,353.84,373.22,453c-1.67-56.38-3.28-114.74-3.93-173.43l21.29,12,17.08,54.74-22.93,2.91Z" transform="translate(0)"/><path class="cls-13" d="M307.38,279.05c-.68,60.18-.53,120.33-.62,178.41L265.92,351.57l26.73-4.64L269.72,344l16.43-53Z" transform="translate(0)"/><path class="cls-29" d="M475.65,657.06H415.91c-.1-5.6-.1-11.14-.1-16.74H474.3C474.77,645.92,475.24,651.51,475.65,657.06Z" transform="translate(0)"/><path class="cls-29" d="M266.85,640.32v16.74H205.44c.41-5.55.83-11.14,1.3-16.74Z" transform="translate(0)"/><path class="cls-27" d="M268,508c-3.51.38-7.48-1.37-10.49-4.83-4-4.62-6-11-7.84-16.65l-16.24-51c-2.73-8.57-6.12-19.22-4.88-29.56.72-6.06,3.62-11.87,7.57-15.16,3.11-2.6,6.55-3.47,10-2.5l-.5,3.48a8.42,8.42,0,0,0-7.79,2c-3.34,2.79-5.8,7.72-6.41,12.86-1.13,9.38,2,19.1,4.7,27.68l16.24,51c1.68,5.26,3.58,11.22,7.07,15.24,3,3.47,7.36,4.81,10.32,3.2l.42-.24.47.14c3.25.93,7.19-1.31,9.38-5.36,2.54-4.68,3.1-10.91,3.59-16.41l4.79-53.3c.81-9,1.72-19.13-1.41-28-1.72-4.89-5.19-9.16-9.05-11.17a8.43,8.43,0,0,0-8-.27l-1.25-3.29c3.12-1.69,6.67-1.59,10.27.27,4.57,2.36,8.66,7.4,10.68,13.16,3.45,9.82,2.45,21,1.65,29.92l-4.8,53.29c-.53,5.89-1.13,12.57-4,17.95-2.73,5.05-7.53,7.82-11.83,6.85A8,8,0,0,1,268,508Z" transform="translate(0)"/><path class="cls-30" d="M251.66,392.6l-6.87.21a1.83,1.83,0,0,1-1.67-1.78l-.3-2.79a1.82,1.82,0,0,1,1.24-2.11l6.75-1.29a1.78,1.78,0,0,1,1.87,1.77l.42,3.86A1.77,1.77,0,0,1,251.66,392.6Z" transform="translate(0)"/><path class="cls-30" d="M264.18,391.23l6.75-1.29a1.83,1.83,0,0,0,1.24-2.11l-.31-2.78a1.82,1.82,0,0,0-1.67-1.79l-6.86.21a1.76,1.76,0,0,0-1.44,2.13l.42,3.86A1.77,1.77,0,0,0,264.18,391.23Z" transform="translate(0)"/><path class="cls-30" d="M270.63,521a2.43,2.43,0,0,1-2.4-1.89l-4.7-14.89c-.54-1.71.32-3.53,1.75-3.72l4.5-.58,4.52-.41c1.44-.13,2.67,1.46,2.51,3.26l-1.36,15.55a2.4,2.4,0,0,1-1.93,2.36Z" transform="translate(0)"/><path class="cls-31" d="M280.84,492.1c-4.71-4.15-4.43-10-4.17-15.7.06-1.35.13-2.7.12-4,0-3.56-.15-7-.29-10.5-.12-3-.23-6.08-.28-9.19-.09-6.93-1.74-15.6-6.05-19.18-2.06-1.7-5.8-2.24-9.54-1.35-3.31.77-5.82,2.47-6.74,4.54-1.29,2.92-1.69,6.52-1.23,11l3,29-4,.43-3-29c-.54-5.18,0-9.45,1.55-13.05,1.45-3.28,4.92-5.78,9.53-6.86,5-1.19,10-.35,13.08,2.18,6.77,5.62,7.48,18.46,7.53,22.26,0,3.07.16,6.08.28,9.09.13,3.52.27,7,.29,10.64,0,1.4-.06,2.83-.13,4.25-.24,5.15-.45,9.6,2.8,12.45Z" transform="translate(0)"/><path class="cls-31" d="M271.15,483.16a114.47,114.47,0,0,1-.88-12.23c-.13-3.59-.26-7.29-.71-10.95-.09-.68-.16-1.42-.23-2.18a25.67,25.67,0,0,0-.95-5.74c-.52-1.47-2.15-2.85-3.44-2.45-4.6,1.33-3,14-1.65,21.48l-4,.72c-3.76-20.9.32-24.89,4.29-26s7.48,1.61,8.66,4.91a29.09,29.09,0,0,1,1.17,6.74c.07.72.13,1.41.21,2.06.48,3.84.62,7.63.74,11.3a111.61,111.61,0,0,0,.85,11.81Z" transform="translate(0)"/><path class="cls-9" d="M238.31,463.88v52.27a17.24,17.24,0,0,0,17.24,17.25h19.61a17.25,17.25,0,0,0,17.25-17.25V463.88Z" transform="translate(0)"/><rect class="cls-32" x="238.31" y="463.88" width="54.1" height="13.13"/><path class="cls-33" d="M252.48,509.59l-4-.53a55.27,55.27,0,0,0-2.29-24.23c-.3-.9-.61-1.79-.94-2.69a40.66,40.66,0,0,1-2.36-8.61c-.53-4.2-.15-10.38,2.67-14,2-2.53,5.57-3.37,9.12-2.15,3.29,1.14,5.41,3.64,5.41,6.37H256c0-.91-1.15-2-2.67-2.51s-3.49-.58-4.59.82c-1.9,2.41-2.28,7.35-1.83,10.92a37.67,37.67,0,0,0,2.16,7.75c.33.93.66,1.85,1,2.79A59.34,59.34,0,0,1,252.48,509.59Z" transform="translate(0)"/><rect class="cls-32" x="247.04" y="506.44" width="8.17" height="11.22"/><path class="cls-34" d="M267.43,530.66a16.31,16.31,0,1,1-16.3-16.31A16.31,16.31,0,0,1,267.43,530.66Z" transform="translate(0)"/><path class="cls-30" d="M258.83,530.66a7.71,7.71,0,1,1-7.7-7.7A7.7,7.7,0,0,1,258.83,530.66Z" transform="translate(0)"/><path class="cls-15" d="M312.46,235.12c3.75-6.1.2-15.29-2.08-22.37,29.51.76,50.46,5.72,62.53-6C369.84,230.31,354.48,238.77,312.46,235.12Z" transform="translate(0)"/><path class="cls-6" d="M374.5,206.76c-14.63,5.46-41,6.59-64.1,6,.82,4.14,2,7.7,2.5,11.86,31.55,3.76,49.33-.71,58.48-8Z" transform="translate(0)"/><path class="cls-35" d="M383.69,201c.28.27-.43,1.45-2.07,3.43a37.66,37.66,0,0,1-3.54,3L375.63,209c-.88.55-1.87,1-2.89,1.48-8.31,3.93-20.89,5.58-34.21,5.28-13.32.3-25.9-1.35-34.21-5.28-1-.52-2-.93-2.89-1.48L299,207.42a36.41,36.41,0,0,1-3.54-3c-1.64-2-2.35-3.16-2.07-3.43s1.54.4,3.46,1.72c1.07.54,2.28,1.29,3.76,2l2.42,1c.84.39,1.82.64,2.78,1,7.88,2.66,19.59,3.65,32.74,3.35,13.15.3,24.86-.69,32.74-3.35,1-.35,1.94-.6,2.78-1l2.42-1c1.48-.72,2.69-1.47,3.76-2C382.14,201.38,383.4,200.72,383.69,201Z" transform="translate(0)"/><polygon class="cls-36" points="443.35 439.11 443.35 439.11 442.25 426.56 419.31 428.57 408.82 429.5 389.61 426.16 389.61 468.46 445.55 464.19 443.35 439.11"/><rect class="cls-32" x="391.19" y="423.61" width="56.6" height="38.81" transform="translate(-37.13 38.38) rotate(-5.02)"/><rect class="cls-31" x="390.05" y="423.66" width="56.6" height="12.6" transform="translate(-36 38.23) rotate(-5.02)"/><rect class="cls-10" x="402.93" y="440.19" width="34.84" height="2.65" transform="translate(-37 38.46) rotate(-5.02)"/><rect class="cls-10" x="408.51" y="446.71" width="24.83" height="2.65" transform="translate(-37.56 38.51) rotate(-5.02)"/><rect class="cls-10" x="406.32" y="452.46" width="30.22" height="2.65" transform="translate(-38.09 38.61) rotate(-5.02)"/><path class="cls-27" d="M420.33,431.15l-3.72.32a3.39,3.39,0,0,1-3.68-3.08l-1-11.17a3.4,3.4,0,0,1,3.09-3.68l3.72-.33a3.41,3.41,0,0,1,3.69,3.09l1,11.17A3.39,3.39,0,0,1,420.33,431.15Z" transform="translate(0)"/></g></g></svg>